<svg width="22" height="24" viewBox="0 0 22 24" fill="none" xmlns="http://www.w3.org/2000/svg">
<path d="M10.7064 0.284474C10.7477 -0.0948246 11.2523 -0.0948246 11.2936 0.284474L11.6396 3.46644C12.0865 7.57523 15.056 10.8147 18.8224 11.3022L21.7392 11.6798C22.0869 11.7248 22.0869 12.2752 21.7392 12.3202L18.8224 12.6978C15.056 13.1853 12.0865 16.4248 11.6396 20.5335L11.2936 23.7155C11.2523 24.0948 10.7477 24.0948 10.7064 23.7155L10.3604 20.5335C9.91346 16.4248 6.94396 13.1853 3.17757 12.6978L0.260768 12.3202C-0.0869226 12.2752 -0.0869226 11.7248 0.260768 11.6798L3.17757 11.3022C6.94396 10.8147 9.91346 7.57523 10.3604 3.46644L10.7064 0.284474Z" fill="#FEF200"/>
</svg>
